<svg height="387pt" preserveAspectRatio="xMidYMid meet" viewBox="0 0 429 387" width="429pt" xmlns="http://www.w3.org/2000/svg"><g transform="matrix(.1 0 0 -.1 0 387)"><path d="m1433 3840c-112-29-197-77-282-156-87-82-140-164-178-279-27-79-27-85-28-345 0-297 4-323 72-422 65-94 73-124 83-296 5-86 14-177 20-202 41-174 108-307 208-412l73-76-3-72-3-72-515-187c-283-103-532-196-554-206-55-27-147-115-178-172-38-69-54-136-102-435-35-216-42-277-35-315 16-85 85-160 168-183 50-14 3462-14 3512 0 52 15 99 49 133 98 47 67 46 126-8 448-47 279-60 330-100 399-31 52-111 127-167 156-24 12-276 107-559 210l-515 187-3 78-3 78 60 60c131 134 210 322 241 568 14 117 41 202 103 328l52 105v300 300l-32 67c-37 80-96 146-158 179-44 23-45 25-45 72 0 86-58 164-147 197-51 19-78 20-546 19-450 0-498-2-564-19zm1077-130c45-23 56-51 45-108-14-77-1-101 67-121 57-18 140-102 161-165 14-42 17-91 16-300 0-264-13-370-21-185-4 91-9 115-35 172-40 83-97 146-170 185-32 16-137 58-233 92-226 81-264 82-425 19l-110-43-200-6-200-5-72-34c-143-67-223-186-233-346-11-168-25-61-25 190 0 204 3 249 18 300 54 177 201 317 373 359 46 11 160 15 532 15 455 1 474 0 512-19zm-198-559c92-33 180-67 196-75 42-22 110-102 123-145 7-24 9-150 7-371-4-310-6-341-27-414-29-105-71-195-126-271-43-60-65-80-291-252-83-63-151-86-260-87-87-1-94 1-175 41-115 58-312 205-366 273-55 69-105 172-134 275-22 75-23 103-27 429-4 394-3 402 68 475s91 78 305 83l190 5 125 46c170 62 185 61 392-12zm-671-1662c105-62 193-89 289-89 112 0 242 44 341 115 27 19 51 35 54 35s5-12 5-27c-1-25-22-42-198-159l-197-131-197 131c-180 119-197 134-198 160 0 28 0 28 25 12 14-10 49-30 76-47zm3-220c100-67 184-125 188-128 9-8-214-316-228-316-10 0-284 496-281 509 3 8 111 54 131 55 5 1 90-54 190-120zm837 97c35-13 64-28 66-32 3-13-271-509-281-509s-238 307-232 312c10 10 372 253 377 253 4 0 35-11 70-24zm-1401-121c0-3-31-68-70-145-38-77-70-151-70-164 0-46 42-66 136-66 46 0 84-2 84-5s-9-23-20-45c-23-45-25-79-7-102 6-8 151-143 322-299l309-284-754-3c-415-1-769 0-787 3-46 8-83 56-83 108s84 552 99 590c19 50 68 112 111 142 23 16 189 83 373 151 321 118 357 130 357 119zm2061-118c174-63 331-123 348-132 47-24 104-85 130-138 23-48 111-531 111-614 0-52-37-100-83-108-18-3-372-4-787-3l-754 3 309 284c171 156 316 291 323 300 17 22 15 56-8 101-11 22-20 42-20 45s38 5 84 5c94 0 136 20 136 66 0 13-31 87-70 164-38 77-70 143-70 146 0 9 4 8 351-119zm-1673-342c115-209 208-382 206-384-5-5-399 361-402 374-2 7 13 42 33 77 40 74 43 100 15 128-17 17-33 20-115 20-52 0-95 2-95 5s25 56 56 117l56 112 19-34c10-19 112-206 227-415zm1237 335c30-60 55-112 55-115s-43-5-95-5c-82 0-98-3-115-20-28-28-25-52 16-131 20-37 34-72 32-77-4-12-399-375-402-370-3 3 447 828 451 828 2 0 28-49 58-110zm-727-136c18-23 32-46 32-50 0-5-14-27-30-48-17-22-30-50-30-62 0-13 16-122 35-243l35-220-41-75c-22-42-42-76-44-76s-21 33-43 73l-41 74 34 214c19 118 35 227 35 243s-14 51-31 77l-30 48 37 50c21 28 41 48 44 43 4-4 21-26 38-48zm-202-275c-9-52-19-109-22-128l-6-34-37 68-38 68 50 69c30 41 54 65 59 60s3-47-6-103zm368 47c25-36 46-69 46-75 0-15-61-123-66-118-8 7-43 241-38 249 8 13 10 11 58-56z"/><path d="m3720 2929c-115-12-217-66-306-161-180-191-177-485 6-682 188-200 508-211 706-24 113 107 157 210 157 368s-44 261-158 369c-106 100-247 146-405 130zm136-80c247-45 401-284 338-524-31-123-108-216-222-273-68-33-85-37-168-40-68-3-107 1-146 13-115 37-208 120-261 233-30 62-32 75-32 173 0 101 1 108 37 180 60 121 166 207 290 234 80 17 91 17 164 4z"/><path d="m3845 2480c-66-66-124-120-130-120s-33 23-60 50c-61 62-105 66-105 8 0-20 143-158 165-158 24 0 305 277 305 301 0 20-20 39-40 39-8 0-69-54-135-120z"/></g></svg>