<svg xmlns="http://www.w3.org/2000/svg" width="96" height="96" viewBox="0 0 96 96"><g transform="translate(-1 -1)"><path d="M41,51h3.1V63.387H41Z" transform="translate(21.935 27.419)" fill="#493878"/><path d="M45,51h3.1V63.387H45Z" transform="translate(24.129 27.419)" fill="#493878"/><path d="M84.613,55.178v-32.5h-3.1V6.913l-3.1.516V4.1h-3.1V7.946l-3.1.516V1h-3.1V8.979l-3.1.516V4.1h-3.1V10.01l-3.1.516V22.677h-3.1V38.161H44.355V16.484H38.161V7.194h-3.1V1H19.581V7.194h-3.1v9.29H10.29V45.415a10.852,10.852,0,0,0-6.07,8.23H1V97H97V53.408ZM62.935,13.15l15.484-2.581V22.677H62.935Zm-3.1,12.624H81.516V55.621l-9.29,1.327V65l-4.645-6.194L62.935,65V38.161h-3.1Zm0,18.581H38.161v-3.1H59.839Zm0,30.968H75.323V93.9H59.839Zm1.548-3.1,6.194-8.258,6.194,8.258ZM22.677,4.1h9.29v3.1h-9.29Zm-3.1,6.194H35.065v6.194H19.581Zm-6.194,9.29H41.258V38.161H35.065v7.254a10.77,10.77,0,0,0-4.645-1.061H14.935a10.879,10.879,0,0,0-1.548.124Zm1.548,27.871H30.419A7.756,7.756,0,0,1,38,53.645H7.35A7.756,7.756,0,0,1,14.935,47.452Zm26.323,9.29v3.1H4.1v-3.1ZM35.065,84.613H28.871V78.419h6.194Zm-9.29,0H19.581V78.419h6.194Zm0,3.1V93.9H19.581V87.71Zm3.1,0h6.194V93.9H28.871Zm6.194-12.387H28.871V69.129h6.194Zm-9.29,0H19.581V69.129h6.194Zm-9.29,0H10.29V69.129h6.194Zm-6.194,3.1h6.194v6.194H10.29Zm0,9.29h6.194V93.9H10.29ZM38.161,93.9V66.032H7.194V93.9H4.1V62.935H41.258V93.9Zm2.973-40.258a10.8,10.8,0,0,0-2.973-6.022v-.172H59.839V69.129l-3.1,4.13V93.9H44.355V53.645ZM93.9,93.9H78.419V73.259l-3.1-4.13v-9.5L93.9,56.979Z" transform="translate(0 0)" fill="#493878"/><path d="M31,33h3.1v3.1H31Z" transform="translate(16.452 17.548)" fill="#493878"/><path d="M31,57h3.1v3.1H31Z" transform="translate(16.452 30.71)" fill="#493878"/><path d="M31,37h3.1v3.1H31Z" transform="translate(16.452 19.742)" fill="#493878"/><path d="M31,53h3.1v3.1H31Z" transform="translate(16.452 28.516)" fill="#493878"/><path d="M31,45h3.1v3.1H31Z" transform="translate(16.452 24.129)" fill="#493878"/><path d="M31,41h3.1v3.1H31Z" transform="translate(16.452 21.935)" fill="#493878"/><path d="M31,49h3.1v3.1H31Z" transform="translate(16.452 26.323)" fill="#493878"/><path d="M35,41h3.1v3.1H35Z" transform="translate(18.645 21.935)" fill="#493878"/><path d="M35,37h3.1v3.1H35Z" transform="translate(18.645 19.742)" fill="#493878"/><path d="M35,33h3.1v3.1H35Z" transform="translate(18.645 17.548)" fill="#493878"/><path d="M57,57h3.1v3.1H57Z" transform="translate(30.71 30.71)" fill="#493878"/><path d="M57,49h3.1v3.1H57Z" transform="translate(30.71 26.323)" fill="#493878"/><path d="M57,53h3.1v3.1H57Z" transform="translate(30.71 28.516)" fill="#493878"/><path d="M57,45h3.1v3.1H57Z" transform="translate(30.71 24.129)" fill="#493878"/><path d="M57,41h3.1v3.1H57Z" transform="translate(30.71 21.935)" fill="#493878"/><path d="M53,53h3.1v3.1H53Z" transform="translate(28.516 28.516)" fill="#493878"/><path d="M53,41h3.1v3.1H53Z" transform="translate(28.516 21.935)" fill="#493878"/><path d="M53,49h3.1v3.1H53Z" transform="translate(28.516 26.323)" fill="#493878"/><path d="M53,57h3.1v3.1H53Z" transform="translate(28.516 30.71)" fill="#493878"/><path d="M53,45h3.1v3.1H53Z" transform="translate(28.516 24.129)" fill="#493878"/><path d="M23,15h3.1v3.1H23Z" transform="translate(12.065 7.677)" fill="#493878"/><path d="M19,15h3.1v3.1H19Z" transform="translate(9.871 7.677)" fill="#493878"/><path d="M11,15h3.1v3.1H11Z" transform="translate(5.484 7.677)" fill="#493878"/><path d="M15,15h3.1v3.1H15Z" transform="translate(7.677 7.677)" fill="#493878"/><path d="M15,19h3.1v3.1H15Z" transform="translate(7.677 9.871)" fill="#493878"/><path d="M23,19h3.1v3.1H23Z" transform="translate(12.065 9.871)" fill="#493878"/><path d="M11,19h3.1v3.1H11Z" transform="translate(5.484 9.871)" fill="#493878"/><path d="M19,19h3.1v3.1H19Z" transform="translate(9.871 9.871)" fill="#493878"/><path d="M11,23h3.1v3.1H11Z" transform="translate(5.484 12.065)" fill="#493878"/><path d="M15,23h3.1v3.1H15Z" transform="translate(7.677 12.065)" fill="#493878"/><path d="M19,23h3.1v3.1H19Z" transform="translate(9.871 12.065)" fill="#493878"/><path d="M49,19h3.1v3.1H49Z" transform="translate(26.323 9.871)" fill="#493878"/><path d="M45,19h3.1v3.1H45Z" transform="translate(24.129 9.871)" fill="#493878"/><path d="M41,19h3.1v3.1H41Z" transform="translate(21.935 9.871)" fill="#493878"/><path d="M49,23h3.1v3.1H49Z" transform="translate(26.323 12.065)" fill="#493878"/><path d="M41,23h3.1v3.1H41Z" transform="translate(21.935 12.065)" fill="#493878"/><path d="M45,23h3.1v3.1H45Z" transform="translate(24.129 12.065)" fill="#493878"/><path d="M45,35h3.1v3.1H45Z" transform="translate(24.129 18.645)" fill="#493878"/><path d="M45,31h3.1v3.1H45Z" transform="translate(24.129 16.452)" fill="#493878"/><path d="M45,27h3.1v3.1H45Z" transform="translate(24.129 14.258)" fill="#493878"/><path d="M49,31h3.1v3.1H49Z" transform="translate(26.323 16.452)" fill="#493878"/><path d="M49,27h3.1v3.1H49Z" transform="translate(26.323 14.258)" fill="#493878"/></g></svg>