<svg height="401pt" preserveAspectRatio="xMidYMid meet" viewBox="0 0 401 401" width="401pt" xmlns="http://www.w3.org/2000/svg"><g transform="matrix(.1 0 0 -.1 0 401)"><path d="m2423 4003c-33-6-79-57-87-94-9-48-7-149 4-191 12-41 50-76 92-85l28-5v-606c0-333-2-603-4-601s-51 108-110 234c-59 127-123 250-142 274-44 58-120 114-192 143l-57 23-700 3-700 3-18-22c-14-18-17-43-17-164 0-169 6-184 83-192l46-6 3-90c3-84 5-91 29-109 23-17 30-18 50-8 36 19 39 28 39 123v87h70 70v-585-585h-70-70v400c0 387-1 401-20 420-11 11-29 20-40 20s-29-9-40-20c-19-19-20-33-20-419v-400l-164-3c-147-3-168-5-193-23-19-15-68-98-158-275l-130-255v-255c0-228 2-259 18-283 32-48 62-61 163-65l92-4 17-47c55-147 187-268 344-315 70-21 202-21 272 0 157 47 289 168 344 316l18 48h208 208l16-57c56-196 226-323 430-323 165 0 318 89 389 227l17 33h695 696l34 34 34 34v114c0 125-7 146-60 173-24 13-94 15-435 15h-405v791c0 711-2 794-16 825-24 50-58 64-159 64h-85v498c0 528 1 522-47 537-17 4-29-1-48-19l-25-25v-1466-1465h-70-70v1625 1625h70 70v-55c0-46 4-60 25-81 19-18 31-23 48-19 35 11 47 35 47 96 0 56 0 57 33 63 19 3 47 20 63 37 28 29 29 34 32 137 3 94 0 111-18 140-35 56-64 62-297 61-114-1-218-4-230-6zm427-183v-70h-200-200v70 70h200 200zm-873-862c39-14 73-37 108-72 45-46 67-89 213-402l162-350v-130-129l-226 445c-124 245-233 453-242 464-10 10-34 27-54 37-35 18-69 19-668 19h-630v70 70h640c630 0 640 0 697-22zm-75-255c9-10 138-259 287-554l271-536v-161-162h-75-74l-10 38c-6 20-33 131-62 245-45 181-55 211-77 225s-27 14-51 1c-18-10-27-24-29-45-2-17 21-128 51-247l55-217h-259-259v349 349l-26 31c-35 42-77 51-229 50-151 0-190-11-222-58-22-33-23-42-23-247v-214h-70-70v585 585h428c396 0 430-1 444-17zm1078-628v-135h-70-70v135 135h70 70zm-1420-455v-330h-27c-22 0-51 23-135 107l-108 108v222 223h135 135zm1420-395c0-648 0-642 56-680 27-19 51-20 442-23l413-3-3-67-3-67-522-3-523-2v720 720h70 70zm-1660 89c63-63 127-122 142-130 22-12 111-14 513-14h485v-206-206l-40 35c-152 138-405 141-570 6l-35-29h-296-296l-28 41c-91 131-260 219-420 219s-329-88-420-219l-28-41h-103-104v90 90l120 240 120 240h423 422zm-433-419c175-52 297-231 280-411-21-223-237-393-451-355-132 23-242 107-299 229-27 58-31 78-32 152 0 103 13 150 65 228 93 138 277 205 437 157zm1388-145c63-31 124-92 156-155 20-42 24-64 24-145 0-86-3-100-29-148-154-277-559-212-616 99-27 145 63 303 204 359 73 28 192 24 261-10zm-1999-117c-2-10-8-42-11-70l-7-53h-69-69v70 70h81c72 0 80-2 75-17zm1450 5c-3-7-13-39-22-70l-17-58h-198-197l-7 53c-3 28-9 60-11 70-5 16 10 17 226 17 182 0 231-3 226-12z"/><path d="m800 1270c-11-11-20-29-20-40s9-29 20-40c17-17 33-20 105-20s88 3 105 20c11 11 20 29 20 40s-9 29-20 40c-17 17-33 20-105 20s-88-3-105-20z"/><path d="m716 695c-146-52-172-248-44-332 59-40 147-40 206 0 73 48 103 148 68 230-17 43-76 93-123 106-48 14-59 13-107-4zm89-111c22-9 46-59 38-81-12-34-36-53-68-53-53 0-85 52-60 100 19 37 50 49 90 34z"/><path d="m2048 620c-103-55-132-200-56-286 42-47 77-64 137-64 85 0 135 30 172 102 34 66 16 173-37 220-55 49-152 61-216 28zm134-117c18-16 24-68 10-89-4-6-18-17-30-23-31-17-75 1-91 35-15 33-14 37 10 68s72 35 101 9z"/></g></svg>