<svg enable-background="new 0 0 2891.9 1488.4" viewBox="0 0 2891.9 1488.4" xmlns="http://www.w3.org/2000/svg" xmlns:xlink="http://www.w3.org/1999/xlink"><clipPath id="a"><path d="m0 0h2891.9v1123.1h-2891.9z"/></clipPath><g enable-background="new" fill="#bababa"><path d="m439 1484.1v-358.4h71.7l143.4 126.3 143.4-126.2h71.7v358.4h-71.7v-262.9l-143.4 126.2-143.4-126.2v262.9h-71.7z"/><path d="m1162.6 1214.3-99.1 198.1h118l35.8 71.7h-269.8l179.2-358.4h71.7l179.2 358.4h-80.2z"/><path d="m1886.1 1484.1h-71.7l-286.7-261.4v261.4h-71.7v-358.4h71.7l286.7 261.4v-261.4h71.7z"/><path d="m2394.6 1127.1v280.5l-77.8 77.8h-274.4l-77.8-77.8v-280.5h71.7v250.9l35.9 35.9h215l35.9-35.9v-250.8h71.5z"/></g><g clip-path="url(#a)" fill="#493878"><path d="m303.2 205.7c0 55.8-45.2 101.1-101 101.1 0 0 0 0-.1 0h-101v408.2h-101.1v-509.3z"/><path d="m1325.6 2c-1.7 0-3.4 0-5 0h-279.3v203.7h101.9v-101.9h182.4c196.9 0 356.6 159.6 356.6 356.6s-159.7 356.6-356.6 356.6h-284.3c-2.9 0-5.7.1-8.5.4-52.8 4.4-93.4 48.5-93.4 101.5h381.1 5c253.2-2.7 456.2-210 453.6-463.2-2.6-249.4-204.2-451-453.6-453.6"/><path d="m424 507.2 346 412.3h-131.9l-346-412.3h-90v-101h383.1c83.7 0 151.6-67.9 151.6-151.6s-67.9-151.5-151.6-151.6h-383.1c0-55.8 45.3-101.1 101.1-101.1h282.1c139.5 1.1 251.7 115.2 250.6 254.7-1.1 137.9-112.7 249.5-250.6 250.6z"/><path d="m2721.3 22.8-126.7 151-116.5 138.8h-128l230.7-275 3.9-4.7c.2-.2.4-.5.6-.7 35.5-38.9 95.4-43.1 136-9.4"/><path d="m2891.9 1100.4c-41.4 34.4-102.7 29.2-137.8-11.6-.6-.6-1.1-1.3-1.7-2l-402.4-480h128l287.2 342.5z"/><path d="m2252 606.9-230.7 275c-.1.2-.2.3-.4.5l-3.5 4.2c-.2.3-.4.5-.6.7-35.5 39-95.4 43.2-135.9 9.5l126.7-151 116.4-139z"/><path d="m2710.8 410.7c0 50.5-38.2 92.9-88.5 98.1h-741.5c0-50.6 38.2-92.9 88.5-98.1z"/><path d="m2124.1 312.5h128l-135.2-160.5c-.3-.5-.7-.9-1.1-1.3-34.9-41.4-96.6-46.9-138.3-12.3l126.7 151z"/></g><path d="m0 0h2891.9v1123.1h-2891.9z" fill="none"/></svg>