<svg xmlns="http://www.w3.org/2000/svg" width="90.983" height="96" viewBox="0 0 90.983 96"><g transform="translate(-13.379 0)"><path d="M89.549,66.16l-17.11-5.423V53.322A19.9,19.9,0,0,0,78.825,38.7V37.14l1.5-.1a4.276,4.276,0,0,0,4.126-4.216V30.014a4.225,4.225,0,0,0-2.812-3.977V22.982A21.729,21.729,0,0,0,76.418,8.556a16.29,16.29,0,0,0-10.6-5.69A4.225,4.225,0,0,0,61.824,0H55.917a4.225,4.225,0,0,0-3.995,2.866,16.288,16.288,0,0,0-10.6,5.69A21.729,21.729,0,0,0,36.1,22.982v3.054a4.225,4.225,0,0,0-2.812,3.977v2.812a4.276,4.276,0,0,0,4.126,4.216l1.5.1V38.7A19.9,19.9,0,0,0,45.3,53.321v7.415l-17.11,5.423c-7.806,2.474-14.813,5.456-14.813,14.65V96h90.983V90.375H101.55v2.813H90.53V69.444c7.309,2.507,11.02,5.188,11.02,11.366v1.128h2.813V80.81c0-9.194-7.007-12.176-14.813-14.65ZM84.9,67.638l2.813.891V87.562H84.9Zm-54.882.892,2.812-.891V87.562H30.023Zm0,21.845h5.625V66.747l2.813-.891v24.52h19v2.813H30.023ZM41.273,67.2,57.464,82.542v5.02H41.273Zm19,15.339L76.468,67.2V87.563H60.277ZM51.7,5.722v9.1h2.812V4.219a1.408,1.408,0,0,1,1.406-1.406h5.906A1.408,1.408,0,0,1,63.23,4.219v10.6h2.812v-9.1c6.413.871,12.783,7.585,12.783,17.26v2.813h-9.97V24.388a4.224,4.224,0,0,0-4.219-4.219H53.1a4.224,4.224,0,0,0-4.219,4.219v1.406h-9.97V22.982C38.916,13.308,45.286,6.593,51.7,5.722ZM66.042,25.795H51.7V24.388A1.408,1.408,0,0,1,53.1,22.982H64.636a1.408,1.408,0,0,1,1.406,1.406ZM41.728,38.7V37.325l6.372.419.185-2.806-10.684-.7a1.505,1.505,0,0,1-1.5-1.409V30.013a1.408,1.408,0,0,1,1.406-1.406H80.232a1.408,1.408,0,0,1,1.406,1.406v2.813a1.505,1.505,0,0,1-1.5,1.409l-21.269,1.4-7.778-.512-.185,2.806,7.963.524,17.142-1.129V38.7a17.142,17.142,0,1,1-34.285,0ZM58.87,58.658a19.838,19.838,0,0,0,10.755-3.153v5.952c-1.468,3.019-5.647,4.956-10.755,4.956s-9.287-1.937-10.755-4.956V55.505A19.838,19.838,0,0,0,58.87,58.658Zm-12.857,4.8C48.218,67,53.1,69.226,58.87,69.226S69.523,67,71.727,63.461l3.448,1.093L58.87,80l-16.3-15.446ZM16.191,80.81c0-6.178,3.71-8.859,11.02-11.366V93.188H16.191ZM60.277,93.188V90.375h19V65.855l2.813.891V90.375h5.625v2.813Z" fill="#493878"/><path d="M483.622,452h2.813v2.813h-2.812Z" transform="translate(-382.072 -367.25)" fill="#493878"/><path d="M309.25,58.678h2.813v2.813H309.25Z" transform="translate(-240.395 -47.676)" fill="#493878"/><path d="M324.25,88.678h2.813v2.813H324.25Z" transform="translate(-252.583 -72.051)" fill="#493878"/></g></svg>