<svg xmlns="http://www.w3.org/2000/svg" width="96.521" height="96.52" viewBox="0 0 96.521 96.52"><g transform="translate(0.271 0.25)"><path d="M304.218,484.66h0a1.405,1.405,0,0,0-.983,1.726,1.494,1.494,0,0,0,1.726.983A1.4,1.4,0,0,0,304.218,484.66Z" transform="translate(-246.42 -393.881)" fill="#493878" stroke="#493878" stroke-width="0.5"/><path d="M265.18,491.861a1.4,1.4,0,1,0,1.535,1.26A1.4,1.4,0,0,0,265.18,491.861Z" transform="translate(-214.503 -399.767)" fill="#493878" stroke="#493878" stroke-width="0.5"/><path d="M186.222,486.366a1.4,1.4,0,1,0-.663,2.73,1.493,1.493,0,0,0,1.694-1.034A1.4,1.4,0,0,0,186.222,486.366Z" transform="translate(-149.945 -395.274)" fill="#493878" stroke="#493878" stroke-width="0.5"/><path d="M225.473,492.435a1.4,1.4,0,1,0,1.3,1.5A1.4,1.4,0,0,0,225.473,492.435Z" transform="translate(-182.038 -400.236)" fill="#493878" stroke="#493878" stroke-width="0.5"/><path d="M341.478,470.922a1.4,1.4,0,0,0-.676,1.867,1.429,1.429,0,0,0,1.867.676A1.4,1.4,0,0,0,341.478,470.922Z" transform="translate(-276.887 -382.644)" fill="#493878" stroke="#493878" stroke-width="0.5"/><path d="M375.878,451.116a1.4,1.4,0,1,0,1.954.352A1.4,1.4,0,0,0,375.878,451.116Z" transform="translate(-305.013 -366.451)" fill="#493878" stroke="#493878" stroke-width="0.5"/><path d="M454.779,361.062a1.4,1.4,0,0,0-1.241,2.52,1.423,1.423,0,0,0,1.88-.638A1.4,1.4,0,0,0,454.779,361.062Z" transform="translate(-367.988 -293.345)" fill="#493878" stroke="#493878" stroke-width="0.5"/><path d="M476.926,284.607a1.4,1.4,0,0,0-1.56,1.228,1.508,1.508,0,0,0,1.4,1.571,1.406,1.406,0,0,0,1.393-1.239v0A1.4,1.4,0,0,0,476.926,284.607Z" transform="translate(-386.36 -231.313)" fill="#493878" stroke="#493878" stroke-width="0.5"/><path d="M469.111,323.77a1.4,1.4,0,0,0-.8,2.694,1.485,1.485,0,0,0,1.745-.949A1.4,1.4,0,0,0,469.111,323.77Z" transform="translate(-379.816 -263.106)" fill="#493878" stroke="#493878" stroke-width="0.5"/><path d="M406.469,425.8a1.4,1.4,0,1,0,1.985.021A1.4,1.4,0,0,0,406.469,425.8Z" transform="translate(-330.025 -345.752)" fill="#493878" stroke="#493878" stroke-width="0.5"/><path d="M434.353,395.4a1.4,1.4,0,1,0,.313,1.96A1.406,1.406,0,0,0,434.353,395.4Z" transform="translate(-351.22 -321.155)" fill="#493878" stroke="#493878" stroke-width="0.5"/><path d="M113.381,60.744a1.405,1.405,0,1,0-1.178-.64A1.4,1.4,0,0,0,113.381,60.744Z" transform="translate(-91.012 -47.088)" fill="#493878" stroke="#493878" stroke-width="0.5"/><path d="M148.6,41.925a1.475,1.475,0,0,0,1.29-1.96,1.4,1.4,0,0,0-1.844-.734h0a1.4,1.4,0,0,0,.556,2.694Z" transform="translate(-119.637 -31.793)" fill="#493878" stroke="#493878" stroke-width="0.5"/><path d="M225.987,23.333c.032,0,.064,0,.094,0a1.394,1.394,0,1,0-.094,0Z" transform="translate(-182.536 -16.681)" fill="#493878" stroke="#493878" stroke-width="0.5"/><path d="M186.5,29.331a1.494,1.494,0,0,0,1.365-1.734,1.4,1.4,0,1,0-1.365,1.734Z" transform="translate(-150.445 -21.555)" fill="#493878" stroke="#493878" stroke-width="0.5"/><path d="M81.82,85.221a1.4,1.4,0,1,0-1.034-.453,1.394,1.394,0,0,0,1.034.453Z" transform="translate(-65.359 -66.984)" fill="#493878" stroke="#493878" stroke-width="0.5"/><path d="M9.235,300.563a1.4,1.4,0,0,0-1.12,1.638,1.5,1.5,0,0,0,1.64,1.121,1.4,1.4,0,0,0-.52-2.76Z" transform="translate(-6.576 -244.27)" fill="#493878" stroke="#493878" stroke-width="0.5"/><path d="M7.85,223.727a1.5,1.5,0,0,0,1.6-1.18,1.4,1.4,0,1,0-1.6,1.18Z" transform="translate(-5.409 -179.57)" fill="#493878" stroke="#493878" stroke-width="0.5"/><path d="M5.441,263.6h.026a1.405,1.405,0,0,0,1.38-1.429h0a1.4,1.4,0,1,0-1.4,1.429Z" transform="translate(-3.283 -211.963)" fill="#493878" stroke="#493878" stroke-width="0.5"/><path d="M16.9,184.826a1.482,1.482,0,0,0,1.775-.891,1.4,1.4,0,1,0-1.775.891Z" transform="translate(-12.954 -147.997)" fill="#493878" stroke="#493878" stroke-width="0.5"/><path d="M32.424,148.01a1.425,1.425,0,0,0,1.9-.579,1.4,1.4,0,1,0-1.9.579Z" transform="translate(-25.75 -118.149)" fill="#493878" stroke="#493878" stroke-width="0.5"/><path d="M53.936,114.348a1.4,1.4,0,1,0-.251-1.97,1.407,1.407,0,0,0,.251,1.97Z" transform="translate(-43.395 -90.896)" fill="#493878" stroke="#493878" stroke-width="0.5"/><path d="M95.15,23.426l-5.214-2.24a24.1,24.1,0,0,0-1.4-3.532l2.089-5.235a1.4,1.4,0,0,0-.308-1.511L85.155,5.723a1.4,1.4,0,0,0-1.521-.312L78.759,7.379A22.857,22.857,0,0,0,74.74,5.643L72.706.855A1.4,1.4,0,0,0,71.414,0H64.121a1.4,1.4,0,0,0-1.292.855L60.794,5.643a22.849,22.849,0,0,0-4.019,1.736L51.9,5.411a1.4,1.4,0,0,0-1.521.312l-5.157,5.186a1.4,1.4,0,0,0-.308,1.511L47,17.654a24.144,24.144,0,0,0-1.183,2.851,29.487,29.487,0,0,0-17.042,5.413A1.4,1.4,0,0,0,30.4,28.213c17.459-12.555,42.525.441,42.34,21.963a26.937,26.937,0,0,1-8.682,19.772,1.4,1.4,0,0,0-.454,1.033v5.335l-4.791-2.024a1.4,1.4,0,0,0-1.163.032,26.972,26.972,0,0,1-22,.7l1.417-1.456a1.4,1.4,0,0,0,.292-1.514l-1.845-4.483a1.4,1.4,0,0,0-1.283-.87l-3.253-.037A15.679,15.679,0,0,0,29.2,64.832L29.161,61.6a1.4,1.4,0,0,0-.864-1.281l-4.458-1.858a1.4,1.4,0,0,0-1.525.295l-1.406,1.382a26.984,26.984,0,0,1,4.653-27.549,1.4,1.4,0,0,0-2.122-1.84A29.8,29.8,0,0,0,18.226,60.99q-.372.017-.744.052l-2.326-2.289a1.4,1.4,0,0,0-1.525-.3L9.173,60.314a1.4,1.4,0,0,0-.865,1.28l-.04,3.521a16.318,16.318,0,0,0-1.5,1.541L3.24,66.7a1.4,1.4,0,0,0-1.283.869L.109,72.047A1.4,1.4,0,0,0,.4,73.561L2.874,76.1a16.483,16.483,0,0,0-.027,2.161L.4,80.781A1.4,1.4,0,0,0,.106,82.3l1.845,4.483a1.4,1.4,0,0,0,1.283.87l3.253.037a15.678,15.678,0,0,0,1.777,1.834L8.3,92.751a1.4,1.4,0,0,0,.864,1.281l4.458,1.858a1.4,1.4,0,0,0,1.525-.295l2.294-2.255a15.585,15.585,0,0,0,2.539-.032L22.3,95.6a1.414,1.414,0,0,0,1.525.3l4.459-1.856a1.4,1.4,0,0,0,.864-1.28l.04-3.521a16.317,16.317,0,0,0,1.5-1.541l3.531-.039a1.4,1.4,0,0,0,1.283-.869L37.349,82.3a1.4,1.4,0,0,0-.291-1.514l-2.473-2.544q.024-.3.036-.6A29.79,29.79,0,0,0,58.3,77.125l6.161,2.6a1.4,1.4,0,0,0,1.951-1.294V71.589a29.763,29.763,0,0,0,9.128-20.738,22.924,22.924,0,0,0,3.221-1.463l4.875,1.967a1.415,1.415,0,0,0,1.521-.312l5.157-5.186a1.4,1.4,0,0,0,.308-1.511l-2.089-5.235a24.123,24.123,0,0,0,1.4-3.532l5.214-2.24A1.4,1.4,0,0,0,96,32.05V24.716a1.4,1.4,0,0,0-.85-1.29ZM33.259,84.857,30,84.893a1.4,1.4,0,0,0-1.091.54A13.518,13.518,0,0,1,26.9,87.507a1.4,1.4,0,0,0-.507,1.064L26.352,91.8l-2.744,1.142-2.141-2.107a1.406,1.406,0,0,0-1.18-.39,12.731,12.731,0,0,1-3.211.043,1.4,1.4,0,0,0-1.143.394l-2.094,2.058L11.1,91.8l-.031-2.953a1.4,1.4,0,0,0-.526-1.08A12.852,12.852,0,0,1,8.3,85.446a1.4,1.4,0,0,0-1.107-.562l-3-.034-1.14-2.771L5.3,79.772a1.4,1.4,0,0,0,.392-1.111,13.636,13.636,0,0,1,.038-2.9,1.4,1.4,0,0,0-.387-1.147l-2.285-2.35L4.2,69.493l3.259-.035a1.4,1.4,0,0,0,1.092-.54,13.509,13.509,0,0,1,2.012-2.074,1.4,1.4,0,0,0,.507-1.064l.037-3.228,2.744-1.142,2.141,2.107a1.4,1.4,0,0,0,1.18.39,12.75,12.75,0,0,1,2.715-.089,1.559,1.559,0,0,0,1.639-.347l2.093-2.058,2.743,1.143.031,2.953a1.4,1.4,0,0,0,.526,1.08A12.854,12.854,0,0,1,29.161,68.9a1.4,1.4,0,0,0,1.107.561l3,.034,1.14,2.771-1.959,2.013a1.613,1.613,0,0,0-.679,1.406,13.653,13.653,0,0,1-.038,2.9,1.4,1.4,0,0,0,.387,1.146l2.285,2.35ZM58.617,23.385a10.412,10.412,0,0,1,9.15-5.476c10.8.133,14.327,14.414,4.972,19.679a29.865,29.865,0,0,0-14.123-14.2Zm34.575,7.74L88.22,33.261a1.4,1.4,0,0,0-.8.914,21.273,21.273,0,0,1-1.673,4.212,1.4,1.4,0,0,0-.062,1.175l1.983,4.969L83.821,48.4l-4.642-1.873a1.4,1.4,0,0,0-1.24.093,20.149,20.149,0,0,1-2.483,1.245,29.459,29.459,0,0,0-1.637-7.67,13.2,13.2,0,0,0,7.165-11.815c-.157-13.892-18.507-18.35-24.966-6.091a29.464,29.464,0,0,0-7.262-1.648,21.292,21.292,0,0,1,1.029-2.265,1.4,1.4,0,0,0,.062-1.175l-1.983-4.969,3.85-3.871,4.642,1.873a1.4,1.4,0,0,0,1.24-.094,20.03,20.03,0,0,1,4.626-2,1.4,1.4,0,0,0,.9-.8L65.05,2.808h5.435l1.927,4.535a1.4,1.4,0,0,0,.9.8,20.03,20.03,0,0,1,4.626,2,1.4,1.4,0,0,0,1.24.094l4.642-1.873,3.85,3.871L85.687,17.2a1.4,1.4,0,0,0,.062,1.175,21.275,21.275,0,0,1,1.673,4.212,1.4,1.4,0,0,0,.8.914l4.971,2.136Z" transform="translate(0)" fill="#493878" stroke="#493878" stroke-width="0.5"/><path d="M147.7,195.081h1.018a2.879,2.879,0,0,0,2.876-2.876v-8.517a2.879,2.879,0,0,0-2.876-2.876,13.8,13.8,0,0,0-1.847.048c3.251-14.288,23.237-14.358,26.524,0a13.8,13.8,0,0,0-1.846-.048,2.879,2.879,0,0,0-2.876,2.876V192.2a2.879,2.879,0,0,0,2.876,2.876c.621-.007,1.7-.009,2.127-.007a5.172,5.172,0,0,1-4.324,5.1,4.107,4.107,0,0,0-3.827-2.628h-2.7a4.1,4.1,0,0,0,0,8.2h2.7a4.108,4.108,0,0,0,3.87-2.745,7.984,7.984,0,0,0,7.089-7.924v-1.168a7.151,7.151,0,0,0-.086-11.975,16.3,16.3,0,0,0-5.223-10.371c-9.776-9.069-26.029-2.844-27.308,10.371a7.145,7.145,0,0,0,3.832,13.15Zm17.826,7.854h-2.7a1.292,1.292,0,0,1,0-2.584h2.7A1.292,1.292,0,0,1,165.523,202.934Zm7.041-10.662s-1.085.064-1.085-.068v-8.517c0-.132,1.089-.067,1.085-.068A4.326,4.326,0,0,1,172.564,192.272ZM147.7,183.62s1.085-.064,1.085.068V192.2c0,.132-1.089.067-1.085.068A4.326,4.326,0,0,1,147.7,183.62Z" transform="translate(-114.26 -135.96)" fill="#493878" stroke="#493878" stroke-width="0.5"/><path d="M63.485,363.415a9.206,9.206,0,0,0-12.052,5.012,9.265,9.265,0,0,0,11.193,12.409,1.4,1.4,0,0,0-.82-2.686,6.381,6.381,0,0,1-4.308-.214,6.476,6.476,0,0,1-3.469-8.439A6.414,6.414,0,0,1,66.066,373.9a1.4,1.4,0,1,0,2.68.84,9.276,9.276,0,0,0-5.261-11.33Z" transform="translate(-41.222 -294.796)" fill="#493878" stroke="#493878" stroke-width="0.5"/></g></svg>