<svg xmlns="http://www.w3.org/2000/svg" width="96.016" height="96" viewBox="0 0 96.016 96"><g transform="translate(0)"><path d="M29.578,48.156A10.578,10.578,0,1,0,19,37.578,10.578,10.578,0,0,0,29.578,48.156Zm0-17.9a7.323,7.323,0,1,1-7.323,7.323A7.323,7.323,0,0,1,29.578,30.255Z" transform="translate(11.921 16.939)" fill="#493878"/><path d="M4,40.061a4.882,4.882,0,0,0-4,4.882v9.211a4.882,4.882,0,0,0,4,4.882l9.52,1.725c.1.26.212.521.325.765l-5.517,7.8a4.882,4.882,0,0,0,.57,6.233l6.51,6.51a4.882,4.882,0,0,0,6.233.553L29.6,77.1l.765.325,1.725,9.52a4.882,4.882,0,0,0,4.882,4h9.211a4.882,4.882,0,0,0,4.882-4l1.725-9.52.765-.325,7.958,5.517a4.882,4.882,0,0,0,6.233-.57l5.24-5.224a1.635,1.635,0,0,0-2.246-2.376l-5.305,5.305a1.627,1.627,0,0,1-2.067.2l-6.51-4.524a29.749,29.749,0,0,0,9.471-8.869,1.629,1.629,0,1,0-2.7-1.823,26.852,26.852,0,1,1-15.216-41.14,1.63,1.63,0,1,0,.814-3.157,30.644,30.644,0,0,0-15.346,0l1.4-7.8a1.627,1.627,0,0,1,1.627-1.334h5.4a1.627,1.627,0,1,0,0-3.255H36.893a4.882,4.882,0,0,0-4.882,4l-1.725,9.52-.765.325-7.877-5.6a4.882,4.882,0,0,0-6.233.57L8.9,23.38a4.882,4.882,0,0,0-.553,6.233l5.517,7.958c-.114.244-.228.5-.325.765ZM3.255,54.073V44.862a1.627,1.627,0,0,1,1.334-1.627l7.779-1.4a30.188,30.188,0,0,0,0,15.232l-7.779-1.4a1.627,1.627,0,0,1-1.334-1.595ZM49.115,78.6l-1.4,7.779a1.627,1.627,0,0,1-1.627,1.334H36.893a1.627,1.627,0,0,1-1.627-1.334l-1.4-7.779A30.009,30.009,0,0,0,49.115,78.6ZM26.331,75.456l-6.51,4.508a1.627,1.627,0,0,1-2.067-.179l-6.51-6.51a1.627,1.627,0,0,1-.2-2.067l4.508-6.51A30.155,30.155,0,0,0,26.315,75.456ZM11.18,25.691l6.51-6.51a1.627,1.627,0,0,1,2.067-.2l6.51,4.508A30.156,30.156,0,0,0,15.46,34.3l-4.508-6.51a1.627,1.627,0,0,1,.228-2.1Z" transform="translate(0 5.05)" fill="#493878"/><path d="M74.567,0H32.255A3.255,3.255,0,0,0,29,3.255V17.9a3.125,3.125,0,0,0,1.627,2.783,3.515,3.515,0,0,0,2.181.472c4.671,11.7,3.6,8.983,5.256,13.117A3.255,3.255,0,0,0,35.51,37.43v4.882a3.255,3.255,0,0,0,3.255,3.255h1.627v4.882A3.255,3.255,0,0,0,43.647,53.7h1.627v9.764a1.627,1.627,0,0,0,.651,1.3l5.859,4.394v5.7a1.627,1.627,0,0,0,3.255,0v-5.7L60.9,64.77a1.627,1.627,0,0,0,.651-1.3V53.7h1.627a3.255,3.255,0,0,0,3.255-3.255V45.567h1.627a3.255,3.255,0,0,0,3.255-3.255V37.43a3.255,3.255,0,0,0-2.522-3.157l5.256-13.117h.521A3.255,3.255,0,0,0,77.822,17.9V3.255A3.255,3.255,0,0,0,74.567,0ZM58.293,62.654l-4.882,3.662-4.882-3.662V53.7h9.764Zm9.764-20.342H53.411a1.627,1.627,0,1,0,0,3.255h9.764v4.882H43.647V45.567H46.9a1.627,1.627,0,0,0,0-3.255H38.764V37.43H68.057Zm-2.734-8.137H41.5L36.291,21.156H70.466ZM74.567,17.9H32.255V3.255H74.567Z" transform="translate(18.194)" fill="#493878"/><path d="M34.627,7.255h3.255a1.627,1.627,0,0,0,0-3.255H34.627a1.627,1.627,0,0,0,0,3.255Z" transform="translate(20.704 2.51)" fill="#493878"/><path d="M40.627,7.255H63.411a1.627,1.627,0,1,0,0-3.255H40.627a1.627,1.627,0,1,0,0,3.255Z" transform="translate(24.468 2.51)" fill="#493878"/><path d="M24.84,22.893a1.627,1.627,0,0,0-2.181-.716C15.792,25.611,12,32.478,12,41.526a1.627,1.627,0,0,0,3.255,0c0-7.746,3.141-13.589,8.869-16.453A1.627,1.627,0,0,0,24.84,22.893Z" transform="translate(7.529 13.805)" fill="#493878"/><circle cx="1.627" cy="1.627" r="1.627" transform="translate(34.175 32.548)" fill="#493878"/></g></svg>