<svg height="383pt" preserveAspectRatio="xMidYMid meet" viewBox="0 0 385 383" width="385pt" xmlns="http://www.w3.org/2000/svg"><path d="m1730 3819c-671-74-1231-469-1525-1074-143-293-204-581-192-905 9-231 45-407 131-630 166-430 516-805 939-1009 666-321 1414-249 2002 193 108 81 285 260 371 376 296 396 431 908 369 1387-111 840-747 1498-1591 1643-138 24-379 33-504 19zm439-135c461-67 864-305 1153-677 247-321 371-688 370-1102 0-140-13-300-26-312-2-2-30 13-62 32-32 20-82 42-110 51l-50 14 38 78c45 91 63 175 53 256-37 330-374 516-675 374-166-79-270-261-257-448 10-139 81-269 193-349 70-50 112-54 143-15 39 49 30 64-76 144-38 29-60 56-84 106-82 166-18 354 149 436 127 63 269 38 371-63 59-60 85-120 89-211 7-131-35-210-154-299-44-32-54-45-54-69 0-54 25-66 141-73 118-6 153-16 226-64 83-55 87-65 54-160-35-98-98-235-146-314l-36-59h-245-244v98c-1 138-21 239-70 340-77 161-247 298-410 333-30 6-61 13-68 15-8 2 1 20 24 51 72 94 114 223 114 353 0 164-59 302-179 420-120 119-246 170-416 170s-296-51-416-170c-122-119-179-255-179-425 0-130 40-252 114-348 23-31 32-49 24-51-7-2-38-9-68-15-154-33-323-163-398-309-59-114-73-169-79-324l-6-138h-243-243l-35 58c-50 83-111 213-145 311-35 99-32 107 52 165 65 44 148 66 249 66 89 0 118 17 118 70 0 24-10 37-52 69-75 55-103 88-133 154-24 51-27 68-23 140 4 97 28 155 89 216 65 65 139 96 229 96 65 0 85-5 142-33 231-113 249-418 35-565-35-24-59-48-63-64-9-35 24-77 64-81 42-4 131 55 185 122 227 285 68 698-291 757-196 32-401-75-488-254-68-142-66-284 6-423l38-73-52-15c-28-8-78-31-110-51-32-19-61-34-63-32-11 11-22 173-23 312 0 440 125 796 396 1132 284 350 678 580 1113 648 121 18 371 18 500-1zm-48-1126c170-84 268-252 256-438-9-146-82-272-206-354-68-45-71-49-71-86 0-60 23-70 150-70 169 0 277-38 376-132 96-90 143-188 158-325l7-63h-866-866l7 63c15 137 62 235 158 325 99 94 207 132 376 132 127 0 150 10 150 70 0 37-3 41-71 85-134 90-209 227-209 387 0 194 132 371 325 435 25 8 79 12 146 10 99-2 110-4 180-39zm667-1900-3-293-95-47c-247-122-565-188-840-174-241 12-494 75-690 173l-95 48-3 293-2 292h865 865zm-1868-18c0-178 0-181-20-170-60 32-227 184-322 293l-50 57h196 196zm2390 171c0-28-264-279-352-336l-28-17v181 181h190c106 0 190-4 190-9z" transform="matrix(.1 0 0 -.1 0 383)"/></svg>