<svg xmlns="http://www.w3.org/2000/svg" width="99.456" height="96.248" viewBox="0 0 99.456 96.248"><g transform="translate(-8 -15.999)"><path d="M105.852,109.039h-1.6V78.56a1.6,1.6,0,0,0-.973-1.474L81.79,67.877V60.915H94.623a8.021,8.021,0,0,0,0-16.041c-.154,0-.309,0-.463.014a11.22,11.22,0,0,0-12.37-7.918V17.6a1.6,1.6,0,0,0-2.045-1.542L46.928,25.437a11.229,11.229,0,0,0-19.4-1.231,9.625,9.625,0,1,0-1.887,19.063h8.021v65.769H22.437V96.029a9.053,9.053,0,0,0,5.372-3.784,16.185,16.185,0,0,0,0-17.746,8.6,8.6,0,0,0-6.976-3.96,8.6,8.6,0,0,0-6.976,3.96,16.185,16.185,0,0,0,0,17.746,9.053,9.053,0,0,0,5.372,3.784v4l-4.095-2.049A1.605,1.605,0,0,0,13.7,100.85l5.53,2.763v5.426H9.6a1.6,1.6,0,0,0,0,3.208h96.248a1.6,1.6,0,0,0,0-3.208ZM81.79,40.223a7.9,7.9,0,0,1,1.6-.162,8.056,8.056,0,0,1,7.938,6.874,1.6,1.6,0,0,0,2.011,1.321,4.812,4.812,0,1,1,1.279,9.45H81.79ZM20.833,86.581a1.6,1.6,0,0,0-1.6,1.6v4.494c-2.731-1.1-4.812-4.917-4.812-9.306,0-5.217,2.938-9.625,6.417-9.625s6.417,4.407,6.417,9.625c0,4.389-2.081,8.205-4.812,9.306V88.185A1.6,1.6,0,0,0,20.833,86.581Zm14-57.687a1.6,1.6,0,0,0-1.163,1.542v9.625H25.645a6.417,6.417,0,1,1,2.121-12.472,1.6,1.6,0,0,0,1.959-.786A8.019,8.019,0,0,1,43.77,26.34Zm34.128,80.144H46.5v-1.6H68.957Zm-19.25-4.812V88.185h6.417v16.041Zm9.625,0V88.185h6.417v16.041Zm19.25,4.812H72.165V105.83a1.6,1.6,0,0,0-1.6-1.6h-1.6V86.581a1.6,1.6,0,0,0-1.6-1.6H48.1a1.6,1.6,0,0,0-1.6,1.6v17.645H44.9a1.6,1.6,0,0,0-1.6,1.6v3.208H36.874V31.645L78.582,19.731ZM101.04,93H88.207V86.581H101.04Zm0-9.625H86.6a1.6,1.6,0,0,0-1.6,1.6V94.6a1.6,1.6,0,0,0,1.6,1.6H101.04v12.833H81.79V71.368l19.25,8.251Z" transform="translate(0 0)" fill="#493878"/><path d="M201.687,292.833a1.6,1.6,0,0,0,1.6-1.6V281.6a1.6,1.6,0,0,0-1.6-1.6H169.6a1.6,1.6,0,0,0-1.6,1.6v9.625a1.6,1.6,0,0,0,1.6,1.6Zm-30.478-9.625h28.874v6.417H171.208Z" transform="translate(-127.917 -211.065)" fill="#493878"/><path d="M169.6,212.833h32.083a1.6,1.6,0,0,0,1.6-1.6V201.6a1.6,1.6,0,0,0-1.6-1.6H169.6a1.6,1.6,0,0,0-1.6,1.6v9.625A1.6,1.6,0,0,0,169.6,212.833Zm1.6-9.625h28.874v6.417H171.208Z" transform="translate(-127.917 -147.106)" fill="#493878"/><path d="M169.6,132.833h32.083a1.6,1.6,0,0,0,1.6-1.6V121.6a1.6,1.6,0,0,0-1.6-1.6H169.6a1.6,1.6,0,0,0-1.6,1.6v9.625A1.6,1.6,0,0,0,169.6,132.833Zm1.6-9.625h28.874v6.417H171.208Z" transform="translate(-127.917 -83.147)" fill="#493878"/></g></svg>